HIERARCHY
ROOT Hips
{
	OFFSET 0.00000 0.00000 0.00000
	CHANNELS 6 Xposition Yposition Zposition Zrotation Yrotation Xrotation 
	JOINT LHipJoint
	{
		OFFSET 0 0 0
		CHANNELS 3 Zrotation Yrotation Xrotation
		JOINT LeftUpLeg
		{
			OFFSET 1.37590 -1.78394 0.89329
			CHANNELS 3 Zrotation Yrotation Xrotation
			JOINT LeftLeg
			{
				OFFSET 2.47928 -6.81178 0.00000
				CHANNELS 3 Zrotation Yrotation Xrotation
				JOINT LeftFoot
				{
					OFFSET 2.63345 -7.23535 0.00000
					CHANNELS 3 Zrotation Yrotation Xrotation
					JOINT LeftToeBase
					{
						OFFSET 0.23938 -0.65768 2.27012
						CHANNELS 3 Zrotation Yrotation Xrotation
						End Site
						{
							OFFSET 0.00000 -0.00000 1.18363
						}
					}
				}
			}
		}
	}
	JOINT RHipJoint
	{
		OFFSET 0 0 0
		CHANNELS 3 Zrotation Yrotation Xrotation
		JOINT RightUpLeg
		{
			OFFSET -1.33617 -1.78394 0.89329
			CHANNELS 3 Zrotation Yrotation Xrotation
			JOINT RightLeg
			{
				OFFSET -2.56922 -7.05888 0.00000
				CHANNELS 3 Zrotation Yrotation Xrotation
				JOINT RightFoot
				{
					OFFSET -2.56568 -7.04915 0.00000
					CHANNELS 3 Zrotation Yrotation Xrotation
					JOINT RightToeBase
					{
						OFFSET -0.27533 -0.75646 2.18105
						CHANNELS 3 Zrotation Yrotation Xrotation
						End Site
						{
							OFFSET -0.00000 -0.00000 1.15233
						}
					}
				}
			}
		}
	}
	JOINT LowerBack
	{
		OFFSET 0 0 0
		CHANNELS 3 Zrotation Yrotation Xrotation
		JOINT Spine
		{
			OFFSET 0.06190 2.15152 -0.00935
			CHANNELS 3 Zrotation Yrotation Xrotation
			JOINT Spine1
			{
				OFFSET 0.06334 2.15332 0.00872
				CHANNELS 3 Zrotation Yrotation Xrotation
				JOINT Neck
				{
					OFFSET 0 0 0
					CHANNELS 3 Zrotation Yrotation Xrotation
					JOINT Neck1
					{
						OFFSET -0.04202 1.66908 0.23524
						CHANNELS 3 Zrotation Yrotation Xrotation
						JOINT Head
						{
							OFFSET 0.07510 1.69357 -0.24440
							CHANNELS 3 Zrotation Yrotation Xrotation
							End Site
							{
								OFFSET 0.02556 1.71719 -0.11000
							}
						}
					}
				}
				JOINT LeftShoulder
				{
					OFFSET 0 0 0
					CHANNELS 3 Zrotation Yrotation Xrotation
					JOINT LeftArm
					{
						OFFSET 3.67168 1.26306 -0.41342
						CHANNELS 3 Zrotation Yrotation Xrotation
						JOINT LeftForeArm
						{
							OFFSET 4.68510 -0.00000 -0.00000
							CHANNELS 3 Zrotation Yrotation Xrotation
							JOINT LeftHand
							{
								OFFSET 3.39626 -0.00000 -0.00000
								CHANNELS 3 Zrotation Yrotation Xrotation
								JOINT LeftFingerBase
								{
									OFFSET 0 0 0
									CHANNELS 3 Zrotation Yrotation Xrotation
									JOINT LeftHandIndex1
									{
										OFFSET 0.48608 -0.00000 -0.00000
										CHANNELS 3 Zrotation Yrotation Xrotation
										End Site
										{
											OFFSET 0.39189 -0.00000 -0.00000
										}
									}
								}
								JOINT LThumb
								{
									OFFSET 0 0 0
									CHANNELS 3 Zrotation Yrotation Xrotation
									End Site
									{
										OFFSET 0.39787 -0.00000 0.39787
									}
								}
							}
						}
					}
				}
				JOINT RightShoulder
				{
					OFFSET 0 0 0
					CHANNELS 3 Zrotation Yrotation Xrotation
					JOINT RightArm
					{
						OFFSET -3.04136 1.42992 -0.76390
						CHANNELS 3 Zrotation Yrotation Xrotation
						JOINT RightForeArm
						{
							OFFSET -5.55576 -0.00000 -0.00000
							CHANNELS 3 Zrotation Yrotation Xrotation
							JOINT RightHand
							{
								OFFSET -3.32774 -0.00000 -0.00000
								CHANNELS 3 Zrotation Yrotation Xrotation
								JOINT RightFingerBase
								{
									OFFSET 0 0 0
									CHANNELS 3 Zrotation Yrotation Xrotation
									JOINT RightHandIndex1
									{
										OFFSET -0.50763 -0.00000 -0.00000
										CHANNELS 3 Zrotation Yrotation Xrotation
										End Site
										{
											OFFSET -0.40926 -0.00000 -0.00000
										}
									}
								}
								JOINT RThumb
								{
									OFFSET 0 0 0
									CHANNELS 3 Zrotation Yrotation Xrotation
									End Site
									{
										OFFSET -0.41551 -0.00000 0.41551
									}
								}
							}
						}
					}
				}
			}
		}
	}
}
MOTION
Frames: 15
Frame Time: .0083333
-10.2777 18.0902 4.0110 -439.8470 -88.4251 441.7530 0.0000 0.0000 0.0000 -19.7878 -5.8527 -7.2141 0.7057 5.3694 14.9651 0.1085 -2.8163 -5.8836 0.0347 1.2022 3.3054 0.0000 0.0000 0.0000 18.2933 2.1359 -23.3615 -10.6393 -17.7540 61.6046 0.3437 -11.6342 1.4562 -0.3461 -3.7803 10.4593 1.7549 1.3137 -3.1442 1.0521 1.6714 -2.7986 0.1316 0.7967 -1.0890 -6.8488 -1.9514 -5.0415 10.5486 -2.0397 -27.8222 4.9061 -1.6855 -7.4734 -0.0000 -0.0000 0.0000 -81.7725 -18.2470 43.2273 59.2050 -56.0943 -33.6804 -0.0000 -0.0000 16.9727 18.4530 24.7280 7.9462 -7.1250 0.0000 -0.0000 -11.9053 55.4793 -3.0941 -0.0000 -0.0000 0.0000 31.5098 68.5715 20.5078 -90.3818 59.9995 -60.3306 0.0000 0.0000 15.9037 -22.7315 -19.9324 8.1284 7.1250 -0.0000 -0.0000 5.7584 -51.3536 -0.9037
-10.3968 18.0971 4.0087 -428.5360 -88.4057 430.4120 0.0000 0.0000 0.0000 -19.9292 -5.7407 -6.6132 0.6842 5.2886 14.7337 0.1162 -3.0977 -6.1092 0.0325 1.1635 3.1989 0.0000 0.0000 0.0000 18.1683 2.0642 -24.1516 -10.5434 -17.7043 61.2898 0.3892 -12.0333 0.8444 -0.3611 -3.8602 10.6838 1.5956 1.2455 -3.0976 1.0242 1.5858 -2.8282 0.1886 0.7559 -1.1496 -6.8723 -1.9328 -4.9267 10.5460 -2.0169 -27.9308 4.9163 -1.6747 -7.5322 -0.0000 -0.0000 0.0000 -80.9618 -20.0911 43.6948 61.6459 -56.7328 -35.7139 -0.0000 -0.0000 16.5992 18.6257 24.9180 8.0820 -7.1250 0.0000 -0.0000 -11.8178 55.7043 -3.1358 -0.0000 -0.0000 0.0000 30.0947 68.8887 19.0946 -90.5862 59.9987 -60.5076 0.0000 0.0000 15.9759 -22.6742 -19.8293 8.0662 7.1250 -0.0000 -0.0000 5.7860 -51.2358 -0.8913
-10.5159 18.1036 4.0055 -417.9320 -88.3178 419.7900 0.0000 0.0000 0.0000 -20.0512 -5.6342 -6.0255 0.6628 5.2069 14.4995 0.1238 -3.3727 -6.3278 0.0303 1.1234 3.0883 0.0000 0.0000 0.0000 18.0581 1.9925 -24.9044 -10.4024 -17.6300 60.8251 0.4341 -12.4101 0.1960 -0.3756 -3.9364 10.8977 1.4427 1.1806 -3.0533 0.9960 1.5040 -2.8625 0.2421 0.7169 -1.2134 -6.8990 -1.9175 -4.8173 10.5462 -1.9980 -28.0374 4.9280 -1.6656 -7.5890 -0.0000 0.0000 0.0000 -80.1207 -22.0147 44.0585 64.0995 -57.3069 -37.7723 -0.0000 -0.0000 16.1803 18.7948 25.1111 8.2181 -7.1250 0.0000 -0.0000 -11.7354 55.9320 -3.1786 -0.0000 0.0000 0.0000 28.5700 69.2188 17.5405 -90.7764 59.9977 -60.6723 0.0000 0.0000 16.0387 -22.6452 -19.7540 8.0259 7.1250 -0.0000 -0.0000 5.7931 -51.1511 -0.8804
-10.6349 18.1096 4.0014 -408.7580 -88.1711 410.6110 0.0000 0.0000 0.0000 -20.1540 -5.5322 -5.4516 0.6417 5.1247 14.2646 0.1311 -3.6430 -6.5398 0.0281 1.0822 2.9749 0.0000 0.0000 0.0000 17.9618 1.9221 -25.6168 -10.2173 -17.5302 60.2122 0.4773 -12.7614 -0.4808 -0.3898 -4.0090 11.1019 1.2958 1.1190 -3.0097 0.9674 1.4262 -2.9030 0.2921 0.6798 -1.2825 -6.9254 -1.9057 -4.7097 10.5454 -1.9839 -28.1425 4.9394 -1.6585 -7.6447 0.0000 0.0000 0.0000 -79.2480 -24.0121 44.3130 66.5431 -57.8153 -39.8348 -0.0000 -0.0000 15.7159 18.9634 25.3079 8.3563 -7.1250 0.0000 -0.0000 -11.6557 56.1637 -3.2224 0.0000 0.0000 0.0000 26.9357 69.5569 15.8465 -90.9499 59.9966 -60.8227 0.0000 0.0000 16.0983 -22.6500 -19.6998 8.0069 7.1250 -0.0000 -0.0000 5.7732 -51.0955 -0.8694
-10.7540 18.1151 3.9964 -401.2480 -87.9788 403.1080 0.0000 0.0000 0.0000 -20.2372 -5.4328 -4.8928 0.6209 5.0425 14.0299 0.1383 -3.9094 -6.7454 0.0260 1.0415 2.8631 0.0000 0.0000 0.0000 17.8786 1.8542 -26.2873 -9.9899 -17.4041 59.4544 0.5180 -13.0841 -1.1781 -0.4040 -4.0805 11.3033 1.1552 1.0612 -2.9689 0.9387 1.3529 -2.9477 0.3387 0.6448 -1.3540 -6.9606 -1.8973 -4.6091 10.5523 -1.9730 -28.2440 4.9547 -1.6524 -7.6973 -0.0000 -0.0000 0.0000 -78.3418 -26.0813 44.4517 68.9519 -58.2580 -41.8784 -0.0000 -0.0000 15.2076 19.1306 25.5044 8.4949 -7.1250 0.0000 -0.0000 -11.5777 56.3954 -3.2657 -0.0000 -0.0000 0.0000 25.1759 69.9007 13.9994 -91.1099 59.9953 -60.9612 0.0000 0.0000 16.1500 -22.6842 -19.6739 8.0102 7.1250 -0.0000 -0.0000 5.7318 -51.0740 -0.8601
-10.8732 18.1200 3.9904 -395.2680 -87.7531 397.1470 0.0000 0.0000 0.0000 -20.3013 -5.3356 -4.3507 0.6007 4.9612 13.7980 0.1453 -4.1725 -6.9455 0.0241 1.0016 2.7533 0.0000 0.0000 0.0000 17.8072 1.7901 -26.9151 -9.7225 -17.2508 58.5568 0.5550 -13.3725 -1.8875 -0.4171 -4.1454 11.4862 1.0198 1.0070 -2.9300 0.9101 1.2838 -2.9984 0.3827 0.6119 -1.4303 -6.9972 -1.8924 -4.5096 10.5594 -1.9669 -28.3442 4.9705 -1.6483 -7.7490 -0.0000 0.0000 0.0000 -77.4009 -28.2164 44.4691 71.2973 -58.6362 -43.8772 -0.0000 -0.0000 14.6580 19.3000 25.7039 8.6365 -7.1250 0.0000 -0.0000 -11.4989 56.6308 -3.3088 -0.0000 0.0000 0.0000 23.2957 70.2458 12.0049 -91.2493 59.9941 -61.0819 0.0000 0.0000 16.1968 -22.7531 -19.6676 8.0344 7.1250 -0.0000 -0.0000 5.6615 -51.0786 -0.8502
-10.9927 18.1245 3.9836 -390.5450 -87.5056 392.4550 0.0000 0.0000 0.0000 -20.3485 -5.2408 -3.8244 0.5810 4.8809 13.5691 0.1522 -4.4322 -7.1400 0.0223 0.9636 2.6487 0.0000 0.0000 0.0000 17.7450 1.7313 -27.4980 -9.4177 -17.0691 57.5236 0.5871 -13.6207 -2.5962 -0.4271 -4.1941 11.6233 0.8889 0.9565 -2.8936 0.8807 1.2192 -3.0540 0.4236 0.5812 -1.5098 -7.0394 -1.8905 -4.4127 10.5709 -1.9641 -28.4446 4.9889 -1.6455 -7.7999 0.0000 0.0000 0.0000 -76.4216 -30.4127 44.3586 73.5540 -58.9529 -45.8074 -0.0000 -0.0000 14.0695 19.4745 25.9057 8.7824 -7.1250 0.0000 -0.0000 -11.4165 56.8701 -3.3510 0.0000 0.0000 0.0000 21.2854 70.5896 9.8555 -91.3682 59.9929 -61.1849 0.0000 0.0000 16.2380 -22.8545 -19.6846 8.0805 7.1250 -0.0000 -0.0000 5.5656 -51.1144 -0.8406
-11.1126 18.1283 3.9759 -386.8230 -87.2441 388.7760 0.0000 0.0000 0.0000 -20.3789 -5.1465 -3.3157 0.5621 4.8023 13.3454 0.1589 -4.6881 -7.3308 0.0205 0.9244 2.5407 0.0000 0.0000 0.0000 17.6914 1.6804 -28.0360 -9.0787 -16.8581 56.3618 0.6137 -13.8275 -3.2892 -0.4343 -4.2291 11.7221 0.7629 0.9100 -2.8587 0.8508 1.1596 -3.1153 0.4615 0.5530 -1.5942 -7.0856 -1.8921 -4.3219 10.5852 -1.9653 -28.5390 5.0087 -1.6441 -7.8471 -0.0000 -0.0000 0.0000 -75.3997 -32.6630 44.1149 75.6954 -59.2125 -47.6446 -0.0000 -0.0000 13.4472 19.6584 26.1047 8.9331 -7.1250 0.0000 -0.0000 -11.3228 57.1088 -3.3885 -0.0000 -0.0000 0.0000 19.1432 70.9286 7.5503 -91.4654 59.9919 -61.2690 0.0000 0.0000 16.2757 -22.9910 -19.7182 8.1467 7.1250 -0.0000 -0.0000 5.4393 -51.1733 -0.8293
-11.2329 18.1316 3.9674 -383.8360 -86.9745 385.8450 0.0000 0.0000 0.0000 -20.3952 -5.0521 -2.8246 0.5441 4.7257 13.1277 0.1655 -4.9410 -7.5174 0.0186 0.8810 2.4214 0.0000 0.0000 0.0000 17.6431 1.6378 -28.5290 -8.7094 -16.6170 55.0796 0.6348 -13.9952 -3.9552 -0.4397 -4.2547 11.7943 0.6398 0.8674 -2.8263 0.8195 1.1046 -3.1821 0.4966 0.5270 -1.6825 -7.1301 -1.8976 -4.2355 10.5964 -1.9726 -28.6294 5.0271 -1.6452 -7.8919 0.0000 0.0000 0.0000 -74.3302 -34.9617 43.7325 77.7002 -59.4206 -49.3687 -0.0000 -0.0000 12.7909 19.8458 26.3035 9.0867 -7.1250 0.0000 -0.0000 -11.2256 57.3487 -3.4242 0.0000 0.0000 0.0000 16.8648 71.2584 5.0875 -91.5383 59.9911 -61.3322 0.0000 0.0000 16.3020 -23.1605 -19.7716 8.2339 7.1250 -0.0000 -0.0000 5.2853 -51.2594 -0.8169
-11.3537 18.1342 3.9581 -381.4130 -86.7023 383.4890 0.0000 0.0000 0.0000 -20.3990 -4.9587 -2.3511 0.5268 4.6513 12.9166 0.1720 -5.1892 -7.7010 0.0168 0.8374 2.3014 0.0000 0.0000 0.0000 17.5982 1.6068 -28.9774 -8.3142 -16.3456 53.6867 0.6511 -14.1347 -4.5748 -0.4444 -4.2772 11.8579 0.5189 0.8288 -2.7972 0.7868 1.0546 -3.2534 0.5291 0.5035 -1.7735 -7.1826 -1.9047 -4.1536 10.6146 -1.9806 -28.7181 5.0493 -1.6463 -7.9349 0.0000 0.0000 0.0000 -73.2051 -37.3023 43.2042 79.5487 -59.5832 -50.9615 -0.0000 -0.0000 12.1026 20.0391 26.4996 9.2436 -7.1250 0.0000 -0.0000 -11.1209 57.5877 -3.4560 0.0000 0.0000 0.0000 14.4408 71.5767 2.4587 -91.5745 59.9906 -61.3635 0.0000 0.0000 16.3340 -23.3726 -19.8333 8.3418 7.1250 -0.0000 -0.0000 5.0907 -51.3608 -0.7993
-11.4751 18.1363 3.9480 -379.4260 -86.4303 381.5810 0.0000 0.0000 0.0000 -20.3908 -4.8642 -1.8946 0.5104 4.5795 12.7129 0.1784 -5.4318 -7.8815 0.0151 0.7940 2.1822 0.0000 0.0000 0.0000 17.5559 1.5882 -29.3805 -7.8979 -16.0436 52.1940 0.6635 -14.2518 -5.1445 -0.4474 -4.2915 11.8983 0.4010 0.7945 -2.7709 0.7523 1.0097 -3.3294 0.5583 0.4825 -1.8676 -7.2347 -1.9144 -4.0742 10.6321 -1.9925 -28.8047 5.0711 -1.6491 -7.9765 -0.0000 -0.0000 0.0000 -72.0169 -39.6778 42.5245 81.2210 -59.7068 -52.4047 -0.0000 -0.0000 11.3869 20.2369 26.6949 9.4038 -7.1250 0.0000 -0.0000 -11.0110 57.8274 -3.4851 -0.0000 -0.0000 0.0000 11.8737 71.8783 -0.3316 -91.5741 59.9906 -61.3632 0.0000 0.0000 16.3649 -23.6187 -19.9129 8.4710 7.1250 -0.0000 -0.0000 4.8665 -51.4884 -0.7793
-11.5971 18.1377 3.9370 -377.7410 -86.1582 379.9870 0.0000 0.0000 0.0000 -20.3723 -4.7682 -1.4597 0.4952 4.5119 12.5213 0.1847 -5.6723 -8.0588 0.0134 0.7484 2.0567 0.0000 0.0000 0.0000 17.5136 1.5806 -29.7426 -7.4660 -15.7121 50.6155 0.6728 -14.3502 -5.6640 -0.4475 -4.2918 11.8990 0.2833 0.7628 -2.7473 0.7162 0.9679 -3.4105 0.5858 0.4632 -1.9655 -7.2890 -1.9263 -4.0016 10.6498 -2.0072 -28.8867 5.0932 -1.6527 -8.0151 -0.0000 0.0000 0.0000 -70.7553 -42.0795 41.6845 82.7033 -59.7979 -53.6852 -0.0000 -0.0000 10.6472 20.4418 26.8877 9.5680 -7.1250 0.0000 -0.0000 -10.8923 58.0665 -3.5098 -0.0000 0.0000 0.0000 9.1624 72.1600 -3.2811 -91.5367 59.9911 -61.3308 0.0000 0.0000 16.3874 -23.9011 -20.0100 8.6228 7.1250 -0.0000 -0.0000 4.6097 -51.6411 -0.7553
-11.7198 18.1385 3.9253 -376.3290 -85.8913 378.6760 0.0000 0.0000 0.0000 -20.3437 -4.6690 -1.0411 0.4809 4.4471 12.3380 0.1910 -5.9058 -8.2332 0.0118 0.7001 1.9240 0.0000 0.0000 0.0000 17.4717 1.5883 -30.0612 -7.0239 -15.3520 48.9645 0.6794 -14.4329 -6.1355 -0.4450 -4.2802 11.8664 0.1686 0.7351 -2.7264 0.6782 0.9310 -3.4957 0.6100 0.4462 -2.0658 -7.3456 -1.9389 -3.9316 10.6694 -2.0226 -28.9672 5.1163 -1.6565 -8.0525 0.0000 0.0000 0.0000 -69.4070 -44.4990 40.6757 83.9878 -59.8630 -54.7957 -0.0000 -0.0000 9.8881 20.6494 27.0819 9.7355 -7.1250 0.0000 -0.0000 -10.7713 58.3083 -3.5330 0.0000 0.0000 0.0000 6.3092 72.4179 -6.3876 -91.4552 59.9920 -61.2602 0.0000 0.0000 16.4179 -24.2134 -20.1245 8.7953 7.1250 -0.0000 -0.0000 4.3265 -51.8190 -0.7276
-11.8434 18.1388 3.9129 -375.1130 -85.6292 377.5700 0.0000 0.0000 0.0000 -20.3073 -4.5699 -0.6372 0.4676 4.3859 12.1649 0.1973 -6.1316 -8.4053 0.0101 0.6504 1.7874 0.0000 0.0000 0.0000 17.4284 1.6089 -30.3374 -6.5769 -14.9650 47.2555 0.6838 -14.5011 -6.5603 -0.4404 -4.2582 11.8041 0.0561 0.7107 -2.7076 0.6383 0.8981 -3.5848 0.6310 0.4313 -2.1690 -7.4040 -1.9531 -3.8657 10.6894 -2.0401 -29.0436 5.1396 -1.6609 -8.0876 -0.0000 0.0000 0.0000 -67.9591 -46.9277 39.4888 85.0604 -59.9076 -55.7235 -0.0000 -0.0000 9.1168 20.8657 27.2761 9.9087 -7.1250 0.0000 -0.0000 -10.6409 58.5526 -3.5522 -0.0000 0.0000 0.0000 3.3218 72.6485 -9.6404 -91.3246 59.9934 -61.1471 0.0000 0.0000 16.4581 -24.5683 -20.2535 8.9930 7.1250 -0.0000 -0.0000 4.0027 -52.0201 -0.6928
-11.9678 18.1385 3.8998 -374.0670 -85.3730 376.6430 0.0000 0.0000 0.0000 -20.2623 -4.4719 -0.2475 0.4553 4.3287 12.0032 0.2038 -6.3479 -8.5756 0.0086 0.5977 1.6424 0.0000 0.0000 0.0000 17.3848 1.6451 -30.5722 -6.1305 -14.5536 45.5033 0.6866 -14.5580 -6.9400 -0.4338 -4.2264 11.7146 -0.0534 0.6895 -2.6911 0.5970 0.8690 -3.6769 0.6490 0.4183 -2.2740 -7.4677 -1.9680 -3.8060 10.7138 -2.0577 -29.1151 5.1651 -1.6650 -8.1197 -0.0000 0.0000 0.0000 -66.3935 -49.3566 38.1104 85.9182 -59.9369 -56.4658 -0.0000 -0.0000 8.3403 21.0912 27.4765 10.0903 -7.1250 0.0000 -0.0000 -10.5037 58.8059 -3.5697 -0.0000 0.0000 0.0000 0.1995 72.8464 -13.0377 -91.1395 59.9951 -60.9868 0.0000 0.0000 16.5102 -24.9746 -20.3811 9.2137 7.1250 -0.0000 -0.0000 3.6245 -52.2305 -0.6458
